<svg xmlns="http://www.w3.org/2000/svg" xmlns:xlink="http://www.w3.org/1999/xlink" width="1em" height="1em" preserveAspectRatio="xMidYMid meet" viewBox="0 0 36 36" style="-ms-transform: rotate(360deg); -webkit-transform: rotate(360deg); transform: rotate(360deg);"><circle fill="#FFCC4D" cx="18" cy="18" r="18"/><path fill="#664500" d="M25.485 27.379C25.44 27.2 24.317 23 18 23c-6.318 0-7.44 4.2-7.485 4.379a.499.499 0 0 0 .237.554a.505.505 0 0 0 .6-.077C11.371 27.837 13.306 26 18 26s6.63 1.837 6.648 1.855a.502.502 0 0 0 .598.081a.5.5 0 0 0 .239-.557z"/><ellipse fill="#664500" cx="12" cy="13.5" rx="2.5" ry="3.5"/><ellipse fill="#664500" cx="24" cy="13.5" rx="2.5" ry="3.5"/></svg>